HIERARCHY
ROOT Hips
{
	OFFSET 0.00000 0.00000 0.00000
	CHANNELS 6 Xposition Yposition Zposition Zrotation Yrotation Xrotation 
	JOINT LHipJoint
	{
		OFFSET 0 0 0
		CHANNELS 3 Zrotation Yrotation Xrotation
		JOINT LeftHip
		{
			OFFSET 1.74857 -1.85566 0.69197
			CHANNELS 3 Zrotation Yrotation Xrotation
			JOINT LeftKnee
			{
				OFFSET 2.40003 -6.59403 0.00000
				CHANNELS 3 Zrotation Yrotation Xrotation
				JOINT LeftAnkle
				{
					OFFSET 2.82169 -7.75254 0.00000
					CHANNELS 3 Zrotation Yrotation Xrotation
					JOINT LeftToe
					{
						OFFSET 0.16466 -0.45240 2.26890
						CHANNELS 3 Zrotation Yrotation Xrotation
						End Site
						{
							OFFSET 0.00000 -0.00000 1.16486
						}
					}
				}
			}
		}
	}
	JOINT RHipJoint
	{
		OFFSET 0 0 0
		CHANNELS 3 Zrotation Yrotation Xrotation
		JOINT RightHip
		{
			OFFSET -1.64169 -1.85566 0.69197
			CHANNELS 3 Zrotation Yrotation Xrotation
			JOINT RightKnee
			{
				OFFSET -2.41814 -6.64379 0.00000
				CHANNELS 3 Zrotation Yrotation Xrotation
				JOINT RightAnkle
				{
					OFFSET -2.80588 -7.70911 0.00000
					CHANNELS 3 Zrotation Yrotation Xrotation
					JOINT RightToe
					{
						OFFSET -0.19098 -0.52472 2.25401
						CHANNELS 3 Zrotation Yrotation Xrotation
						End Site
						{
							OFFSET -0.00000 -0.00000 1.16333
						}
					}
				}
			}
		}
	}
	JOINT lowerback
	{
		OFFSET 0 0 0
		CHANNELS 3 Zrotation Yrotation Xrotation
		JOINT Chest
		{
			OFFSET -0.02828 2.14690 -0.11061
			CHANNELS 3 Zrotation Yrotation Xrotation
			JOINT Chest2
			{
				OFFSET -0.00167 2.15299 0.00759
				CHANNELS 3 Zrotation Yrotation Xrotation
				JOINT lowerneck
				{
					OFFSET 0 0 0
					CHANNELS 3 Zrotation Yrotation Xrotation
					JOINT Neck
					{
						OFFSET -0.09296 1.90118 0.07197
						CHANNELS 3 Zrotation Yrotation Xrotation
						JOINT Head
						{
							OFFSET 0.08490 1.89526 -0.24604
							CHANNELS 3 Zrotation Yrotation Xrotation
							End Site
							{
								OFFSET 0.03186 1.92109 -0.09483
							}
						}
					}
				}
				JOINT LeftCollar
				{
					OFFSET 0 0 0
					CHANNELS 3 Zrotation Yrotation Xrotation
					JOINT LeftShoulder
					{
						OFFSET 3.21569 1.44644 -0.03720
CHANNELS 3 Zrotation Xrotation Yrotation
						JOINT LeftElbow
						{
OFFSET 0 -5.476510 -0.000000
CHANNELS 3 Zrotation Xrotation Yrotation
							JOINT LeftWrist
							{
OFFSET 0 -3.090580 -0.000000
CHANNELS 3 Zrotation Xrotation Yrotation
								JOINT lhand
								{
									OFFSET 0 0 0
CHANNELS 3 Zrotation Xrotation Yrotation
									JOINT LFingers
									{
OFFSET 0 -0.771610 -0.000000
CHANNELS 3 Zrotation Xrotation Yrotation
										End Site
										{
OFFSET 0 -0.622090 -0.000000
										}
									}
								}
								JOINT LThumb
								{
OFFSET 0 0.000000 0.000000
CHANNELS 3 Zrotation Xrotation Yrotation
									End Site
									{
OFFSET 0 -0.631590 0.631590
									}
								}
							}
						}
					}
				}
				JOINT RightCollar
				{
					OFFSET 0 0 0
					CHANNELS 3 Zrotation Yrotation Xrotation
					JOINT RightShoulder
					{
						OFFSET -3.38693 1.28904 -0.07093
CHANNELS 3 Zrotation Xrotation Yrotation
						JOINT RightElbow
						{
OFFSET 0 -5.141820 -0.000000
CHANNELS 3 Zrotation Xrotation Yrotation
							JOINT RightWrist
							{
OFFSET 0 -3.355650 -0.000000
CHANNELS 3 Zrotation Xrotation Yrotation
								JOINT rhand
								{
									OFFSET 0 0 0
CHANNELS 3 Zrotation Xrotation Yrotation
									JOINT RFingers
									{
OFFSET 0 -0.801040 -0.000000
CHANNELS 3 Zrotation Xrotation Yrotation
										End Site
										{
OFFSET 0 -0.645820 -0.000000
										}
									}
								}
								JOINT RThumb
								{
OFFSET 0 0.000000 0.000000
CHANNELS 3 Zrotation Xrotation Yrotation
									End Site
									{
OFFSET 0 -0.655680 0.655680
									}
								}
							}
						}
					}
				}
			}
		}
	}
}
MOTION
Frames: 6
Frame Time: 0.008333333333333333
-0.769300 18.146700 -0.398300 1.768100 2.226300 3.166100 0.000000 0.000000 0.000000 -17.746400 -6.060100 -1.974500 0.463400 4.366600 12.110400 0.164100 10.439500 -17.178900 1.032300 -6.462400 -18.132200 0.000000 0.000000 0.000000 19.197300 6.924200 -5.631800 -1.119700 -6.721700 18.893500 -0.239800 -12.037100 -20.003700 -0.165200 2.618400 -7.218200 -1.087300 1.269400 3.137300 1.059400 1.669600 0.617300 1.626100 0.839500 -1.187600 -5.358900 -2.807400 -4.715300 1.791000 -3.490500 10.559000 1.374700 -1.848100 4.497400 0.000000 -0.000000 0.000000 27.730500 28.924700 -76.210600 83.081700 -59.818400 54.012200 12.497300 -32.537500 -43.337200 0.000000 0.000000 0.000000 -7.125000 0.000000 0.000000 -38.281600 70.630000 24.549900 0.000000 -0.000000 0.000000 -28.010700 27.609900 72.958600 -78.402800 -59.485700 -49.973900 -19.541700 -50.630400 0.261600 0.000000 0.000000 0.000000 7.125000 0.000000 -0.000000 5.546700 30.233100 2.007800
-0.835591 18.127358 -0.540882 1.858390 3.854878 1.534668 0.000000 0.000000 0.000000 -17.611213 -6.278409 -0.500951 0.427815 4.197695 11.633654 0.155193 9.578332 -16.015303 0.973027 -6.279598 -17.597952 0.000000 0.000000 0.000000 19.466431 5.418468 -4.581986 -1.128465 -6.747195 18.968544 -0.260529 -12.304991 -20.546790 -0.089543 1.930181 -5.312842 -0.915823 1.665477 3.638752 0.541088 2.192481 0.528842 0.959197 1.101174 -1.551346 -6.187451 -2.714878 -1.165798 2.575263 -3.553100 2.129621 1.815687 -1.797622 1.031991 0.000000 0.000000 0.000000 18.124730 2.646185 -57.712211 51.399785 -53.543540 27.296381 11.688289 -37.108115 -33.070126 0.000000 0.000000 0.000000 -7.125000 0.000000 0.000000 -24.756867 61.891952 10.525684 0.000000 0.000000 0.000000 -20.966776 -0.278955 52.086068 -41.874067 -49.139431 -19.845994 -27.920055 -31.180473 -7.339197 0.000000 0.000000 0.000000 7.125000 0.000000 0.000000 -0.813246 21.686900 -0.454848
-1.103634 18.119859 -0.830425 1.551782 6.886141 1.065679 0.000000 0.000000 0.000000 -15.900306 -7.611693 -6.579057 1.208824 6.974910 19.641011 0.250160 6.438552 -13.949386 1.400162 -7.485205 -21.161054 0.000000 0.000000 0.000000 20.511924 3.404594 -5.462124 -1.107979 -6.687602 18.793124 -0.186738 -12.692912 -20.231356 -0.060105 1.582423 -4.353045 0.263097 3.253724 4.631315 -1.238631 4.319115 -0.057305 -1.707437 2.142897 -2.534758 -7.426544 -7.069318 1.339411 4.931688 -9.497495 -2.065636 2.852561 -4.743905 -0.256600 0.000000 0.000000 0.000000 17.160821 -36.852247 -24.008360 76.177101 -59.265036 48.058595 13.885606 -66.422661 -25.115997 0.000000 0.000000 0.000000 -7.125000 0.000000 0.000000 -16.743750 54.963860 4.183847 0.000000 0.000000 0.000000 -26.608065 -51.415790 49.134101 -39.377843 -47.696818 -17.977787 -28.627873 -20.078940 -19.071660 0.000000 0.000000 0.000000 7.125000 0.000000 0.000000 -0.248442 8.481459 -0.209042
-1.031123 18.103021 -0.498878 2.068414 7.465097 1.865599 0.000000 0.000000 0.000000 -16.618473 -7.748329 -5.719894 1.120766 6.724851 18.902787 0.351048 5.665259 -14.705834 1.302487 -7.229903 -20.398341 0.000000 0.000000 0.000000 19.863885 3.320888 -5.335153 -1.189639 -6.921297 19.482397 -0.341070 -12.514509 -21.614729 -0.054993 1.513049 -4.161717 0.245956 5.308317 3.794013 -2.775939 7.040388 0.125648 -3.328947 3.511507 -1.606366 -6.988314 -10.459950 4.848525 6.696138 -14.232136 -1.402671 3.459169 -7.188957 -0.229877 0.000000 0.000000 0.000000 32.139189 -34.970336 8.333487 135.137157 -50.693959 97.865370 7.224196 -83.839462 -24.166275 0.000000 0.000000 0.000000 -7.125000 0.000000 0.000000 -22.728249 52.850271 4.579646 0.000000 0.000000 0.000000 -22.247434 -70.822773 65.256443 -73.727284 -58.970316 -45.956520 -28.664730 -16.078038 -20.932087 0.000000 0.000000 0.000000 7.125000 0.000000 0.000000 -0.035801 6.425768 -0.031538
-0.607511 17.986779 -0.104955 0.526653 11.618219 1.375232 0.000000 0.000000 0.000000 -16.558057 -9.645763 -5.621682 1.503136 7.743706 21.938324 0.721544 3.390753 -17.627187 1.285162 -7.183598 -20.260404 0.000000 0.000000 0.000000 20.581149 0.884564 -4.454458 -1.353559 -7.364912 20.800931 -0.440936 -14.060332 -24.307585 -0.099559 2.034707 -5.601711 -1.297943 6.721496 3.274128 -2.604957 8.933412 2.125341 -2.178972 4.477865 0.588387 -7.034824 -13.260691 5.350986 9.461026 -17.990575 -1.479127 4.307449 -9.127504 0.229175 0.000000 0.000000 0.000000 14.572971 0.422704 18.765460 154.688532 -36.520584 111.525397 5.673577 -98.751307 -23.541751 0.000000 0.000000 0.000000 -7.125000 0.000000 0.000000 -23.843962 52.013552 4.320207 0.000000 0.000000 0.000000 -22.596325 -48.962473 76.062596 -122.455708 -55.619052 -87.693985 -16.529450 -7.247379 -20.420087 0.000000 0.000000 0.000000 7.125000 0.000000 0.000000 7.649164 8.908455 6.431165
-0.349972 18.022147 0.044650 -0.028923 13.154822 2.041669 0.000000 0.000000 0.000000 -16.785133 -10.916525 -5.338750 1.455187 7.624617 21.579625 0.757863 2.993512 -17.794428 1.197346 -6.942883 -19.546307 0.000000 0.000000 0.000000 20.591444 0.033763 -3.787884 -1.157599 -6.830739 19.214874 -0.283738 -15.450402 -24.590404 -0.104091 2.079575 -5.725570 -1.580250 6.456330 3.460128 -2.918949 8.540192 1.403172 -2.414581 4.278146 -0.262482 -7.151450 -13.087172 5.177784 9.539641 -17.888932 0.883642 4.232213 -9.056913 1.046585 0.000000 0.000000 0.000000 24.698653 0.323280 13.364830 151.670110 -39.418160 109.667497 5.039163 -95.094632 -22.435570 0.000000 0.000000 0.000000 -7.125000 0.000000 0.000000 -23.831953 50.900864 3.642660 0.000000 0.000000 0.000000 -25.831483 -53.544307 73.454226 -118.529312 -56.689237 -84.432522 -15.377941 -10.938543 -19.539788 0.000000 0.000000 0.000000 7.125000 0.000000 0.000000 8.352369 9.941601 6.860041
